<?xml version="1.0" encoding="utf-8"?>
<!-- Generator: Adobe Illustrator 23.0.3, SVG Export Plug-In . SVG Version: 6.00 Build 0)  -->
<svg version="1.1" id="Layer_1" xmlns="http://www.w3.org/2000/svg" xmlns:xlink="http://www.w3.org/1999/xlink" x="0px" y="0px"
	 viewBox="0 0 1000 1000" style="enable-background:new 0 0 1000 1000;" xml:space="preserve">
<style type="text/css">
	.st0{fill:none;}
	.st1{fill:url(#SVGID_1_);}
	.st2{fill:url(#SVGID_2_);}
	.st3{fill:url(#SVGID_3_);}
</style>
<polygon class="st0" points="995.46,589.43 1000,580.36 995.46,589.43 "/>
<polygon class="st0" points="365.69,1000 632.31,1000 499,734 "/>
<linearGradient id="SVGID_1_" gradientUnits="userSpaceOnUse" x1="149.9526" y1="594.2727" x2="149.9526" y2="585">
	<stop  offset="0" style="stop-color:#2B7BBB"/>
	<stop  offset="1" style="stop-color:#2BAABB"/>
</linearGradient>
<path class="st1" d="M149.99,589.61c0-0.04,0.01-0.07,0.01-0.11c0-0.2-0.03-0.39-0.06-0.59c-0.01,0.18-0.01,0.36-0.03,0.53
	L149.99,589.61z"/>
<linearGradient id="SVGID_2_" gradientUnits="userSpaceOnUse" x1="500" y1="621.1818" x2="500" y2="-5">
	<stop  offset="0" style="stop-color:#2B7BBB"/>
	<stop  offset="1" style="stop-color:#2BAABB"/>
</linearGradient>
<path class="st2" d="M988-5H862c-6.6,0-12,5.18-12,11.51v228.26H575V11.3c0-6.33-5.4-11.51-12-11.51H437c-6.6,0-12,5.18-12,11.51
	v223.46H150V11.3c0-6.33-5.4-11.51-12-11.51H12C5.4-0.2,0,4.97,0,11.3v234.97v72.89v108.96v132.1v1.74v1.76
	c0,1.9,0.49,3.69,1.35,5.27h2.3h0.93h131.9h11.03c1.43-0.7,2.43-2.1,2.48-3.73l-0.08-0.16c0.02-0.17,0.02-0.34,0.03-0.51
	c0.03-0.29,0.06-0.58,0.06-0.87V330.67h275v96.97v134.5v1.59c0,1.35,0.26,2.64,0.71,3.84c0.19,0.5,0.41,0.97,0.67,1.44h2.21h140.83
	h3.63h0.59c0.86-1.58,1.36-3.37,1.36-5.27v-5.41V428.6v-97.93h275v228.26c0,0.44,0.03,0.88,0.09,1.31
	c-0.05,0.36-0.09,0.72-0.09,1.09c0,1.55,0.46,2.99,1.25,4.22c1.01,1.59,2.57,2.82,4.41,3.45h10.67h127.08h0.34
	c1.98-1.05,3.62-2.6,4.73-4.49c0.97-1.65,1.52-3.56,1.52-5.58v-2.53V429.08V319.16v-72.89V6.51C1000,0.18,994.6-5,988-5z"/>
<linearGradient id="SVGID_3_" gradientUnits="userSpaceOnUse" x1="500.9536" y1="626.4649" x2="500.9536" y2="1018.1013">
	<stop  offset="0" style="stop-color:#2B7BBB"/>
	<stop  offset="1" style="stop-color:#2BAABB"/>
</linearGradient>
<path class="st3" d="M993.75,641c-0.15,0.07-0.3,0.15-0.46,0.22l0.12-0.22H849.43L711,882.52l5.34,9.32l-4.84-7.74l-5.39,8.61
	l4.89-8.61L573.33,641.5c-0.1,0.15-0.22,0.3-0.33,0.44V641h-3.59H428.59h-2.21H425h-0.04L287.99,882.36l-1.09-1.81l0.1-0.18
	L151.93,641H4.59l2.79,4.92c-0.43-0.16-0.85-0.35-1.26-0.55L206.24,1000H214h5.49h133.28H359h6.69L499,765.08L632.31,1000H639h6.23
	h133.1H784h7.56l205.76-359H993.75z"/>
</svg>
